<svg width="516" height="559" viewBox="0 0 516 559" fill="none" xmlns="http://www.w3.org/2000/svg">
<path d="M167.036 121.147C165.677 163.801 178.064 182.613 187.331 188.574C188.976 189.633 190.635 187.985 190.065 186.114C171.312 124.618 193.657 87.6532 237.013 51.4837L292.913 4.37107C294.668 2.89254 297.347 4.43635 297.024 6.70786C289.407 60.3718 307.519 99.8433 317.958 113.264C351.037 145.434 353.967 191.879 350.902 215.489C350.634 217.551 352.813 219.06 354.501 217.846C369.361 207.161 376.919 187.952 379.979 174.405C380.527 171.982 384.116 171.521 385.11 173.796C433.307 284.14 386.28 347.586 355.958 365.78C303.395 407.751 234.358 398.631 206.41 388.825C59.6005 322.162 113.514 185.445 162.635 119.499C164.072 117.57 167.113 118.743 167.036 121.147Z" fill="#D2BA90"/>
<path d="M236.336 324.979C228.755 332.56 219.742 336.351 209.296 336.351C201.894 336.351 195.477 335.067 190.045 332.5C184.672 329.934 180.404 326.233 177.24 321.398C174.077 316.562 171.749 311.041 170.256 304.833C168.824 298.625 168.107 291.551 168.107 283.612C168.107 277.702 168.406 272.39 169.003 267.674C169.66 262.958 170.704 258.452 172.137 254.154C173.569 249.856 175.539 246.155 178.046 243.051C180.553 239.887 183.628 237.141 187.269 234.813C190.91 232.485 195.327 230.754 200.521 229.62C205.714 228.426 211.624 227.829 218.249 227.829C221.234 227.829 224.07 228.008 226.756 228.366C229.502 228.725 231.83 229.172 233.74 229.709C235.65 230.187 237.441 230.814 239.112 231.59C240.843 232.306 242.186 232.963 243.141 233.56C244.156 234.097 245.081 234.694 245.917 235.35C246.753 236.007 247.26 236.455 247.439 236.694C247.678 236.932 247.857 237.111 247.976 237.231L246.633 257.825H230.337L225.234 245.916C223.92 245.2 221.801 244.842 218.876 244.842C216.489 244.842 214.519 245.051 212.967 245.468C211.415 245.886 209.863 246.782 208.311 248.155C206.818 249.468 205.624 251.408 204.729 253.975C203.893 256.482 203.207 259.914 202.67 264.272C202.132 268.569 201.864 273.822 201.864 280.03C201.864 292.984 202.55 302.594 203.923 308.862C205.356 315.13 208.191 318.264 212.429 318.264C214.519 318.264 216.28 318.085 217.712 317.727C219.145 317.309 220.488 316.592 221.741 315.578C222.995 314.503 223.92 312.951 224.517 310.922C225.114 308.832 225.413 306.176 225.413 302.953V293.82L213.593 291.133V272.867H253.438L253.349 334.47H237.411L236.336 324.979ZM292.736 293.909C292.736 303.818 293.482 310.713 294.974 314.593C296.526 318.473 299.212 320.413 303.033 320.413C305.838 320.413 307.957 319.726 309.39 318.353C310.823 316.921 311.897 314.026 312.613 309.668C313.389 305.251 313.777 298.655 313.777 289.88V268.301C313.777 259.765 312.942 253.408 311.27 249.229C309.599 245.051 306.853 242.961 303.033 242.961C299.212 242.961 296.526 245.021 294.974 249.139C293.482 253.199 292.736 260.63 292.736 271.435V293.909ZM301.152 336.351C296.198 336.351 291.721 335.903 287.721 335.008C283.782 334.112 280.379 332.859 277.514 331.247C274.649 329.635 272.142 327.576 269.993 325.069C267.903 322.562 266.202 319.875 264.889 317.01C263.635 314.145 262.621 310.802 261.845 306.982C261.069 303.102 260.531 299.252 260.233 295.431C259.934 291.551 259.785 287.194 259.785 282.359C259.785 275.195 260.143 268.957 260.86 263.645C261.636 258.332 263.038 253.348 265.068 248.692C267.098 243.976 269.784 240.156 273.127 237.231C276.529 234.306 280.887 232.008 286.199 230.336C291.572 228.665 297.899 227.829 305.182 227.829C310.196 227.829 314.703 228.307 318.702 229.262C322.701 230.157 326.134 231.411 328.999 233.022C331.864 234.634 334.341 236.723 336.431 239.29C338.58 241.857 340.281 244.603 341.534 247.528C342.848 250.393 343.892 253.766 344.668 257.646C345.444 261.526 345.982 265.376 346.28 269.196C346.579 273.017 346.728 277.344 346.728 282.179C346.728 289.343 346.34 295.58 345.564 300.893C344.788 306.206 343.385 311.19 341.355 315.846C339.326 320.443 336.61 324.203 333.207 327.128C329.805 329.993 325.417 332.262 320.045 333.933C314.732 335.545 308.435 336.351 301.152 336.351Z" fill="white"/>
<path d="M42.5311 539.45C46.7693 539.45 49.8733 538.256 51.8432 535.869C53.8131 533.481 54.798 530.646 54.798 527.363V521.095C54.798 517.215 53.5444 514.469 51.0374 512.857C48.5303 511.186 45.6948 510.35 42.5311 510.35H35.5471V539.45H42.5311ZM53.5444 478.922C53.5444 475.34 52.5595 472.863 50.5897 471.49C48.6198 470.057 45.7844 469.341 42.0834 469.341H35.5471V495.218H42.7997C46.2619 495.218 48.9183 493.875 50.7687 491.189C52.6192 488.443 53.5444 485.1 53.5444 481.16V478.922ZM48.6198 557.806C43.9638 557.806 37.9348 557.686 30.5329 557.448C23.131 557.209 17.8183 557.06 14.5949 557H5.99913V452.06H21.4894C25.2501 452.06 29.5479 451.941 34.3831 451.702C39.2182 451.403 42.7102 451.254 44.8591 451.254C51.8432 451.254 57.7229 451.821 62.4984 452.955C67.3335 454.09 71.124 455.791 73.8699 458.059C76.6157 460.327 78.5557 462.954 79.6899 465.939C80.8838 468.923 81.4807 472.475 81.4807 476.594C81.4807 482.921 80.0182 488.353 77.0933 492.89C74.1683 497.427 69.9301 500.262 64.3787 501.396C78.4662 502.65 85.5099 510.917 85.5099 526.199C85.5099 530.795 84.8235 534.973 83.4505 538.734C82.0776 542.435 79.9585 545.748 77.0933 548.673C74.2877 551.538 70.4674 553.777 65.6322 555.388C60.7971 557 55.1263 557.806 48.6198 557.806ZM134.438 558.88C128.29 558.88 122.828 558.283 118.053 557.09C113.337 555.896 109.457 554.284 106.412 552.254C103.428 550.225 100.951 547.718 98.9807 544.733C97.0705 541.689 95.7275 538.495 94.9514 535.152C94.1754 531.81 93.7874 528.109 93.7874 524.05V452.06H125.663V520.02C125.663 527.601 126.439 532.824 127.991 535.69C129.603 538.495 131.931 539.898 134.975 539.898C136.647 539.898 138.109 539.629 139.363 539.092C140.616 538.495 141.78 537.51 142.855 536.137C143.929 534.705 144.735 532.675 145.272 530.049C145.869 527.363 146.168 524.109 146.168 520.289V452.06H174.462V524.587C174.462 528.586 174.104 532.198 173.388 535.421C172.731 538.644 171.478 541.778 169.627 544.823C167.836 547.807 165.449 550.314 162.464 552.344C159.539 554.314 155.689 555.896 150.913 557.09C146.198 558.283 140.706 558.88 134.438 558.88ZM215.935 522.08V557H186.208V452.06H198.027C200.892 452.06 205.16 451.941 210.831 451.702C216.502 451.403 221.188 451.254 224.889 451.254C237.783 451.254 247.393 454.09 253.721 459.76C260.108 465.431 263.301 474.117 263.301 485.816C263.301 492.741 261.779 498.889 258.735 504.261C255.75 509.634 251.781 513.902 246.826 517.066C249.512 517.722 251.81 519.244 253.721 521.632C255.69 524.02 257.213 526.855 258.287 530.138C259.362 533.362 260.287 536.645 261.063 539.988C261.898 543.271 262.824 546.524 263.838 549.747C264.913 552.971 266.077 555.388 267.331 557H234.291C233.634 556.164 233.127 553.836 232.768 550.016C232.41 546.136 231.903 541.51 231.246 536.137C230.649 530.705 229.784 526.169 228.65 522.527C228.53 522.527 228.381 522.527 228.202 522.527C227.068 522.527 225.844 522.527 224.531 522.527C223.277 522.468 222.173 522.408 221.218 522.348C220.263 522.289 219.248 522.229 218.173 522.169C217.159 522.11 216.413 522.08 215.935 522.08ZM215.935 505.425H218.8C220.293 505.425 221.546 505.366 222.561 505.246C223.576 505.127 224.68 504.918 225.874 504.62C227.127 504.261 228.142 503.724 228.918 503.008C229.754 502.292 230.53 501.366 231.246 500.232C231.963 499.098 232.5 497.636 232.858 495.845C233.216 494.054 233.395 491.965 233.395 489.577V482.503C233.395 477.31 232.022 473.699 229.276 471.669C226.59 469.58 222.71 468.535 217.636 468.535H215.935V505.425ZM336.974 547.509C329.393 555.09 320.379 558.88 309.933 558.88C302.531 558.88 296.114 557.597 290.682 555.03C285.31 552.463 281.042 548.762 277.878 543.927C274.714 539.092 272.386 533.571 270.894 527.363C269.461 521.154 268.745 514.081 268.745 506.142C268.745 500.232 269.043 494.919 269.64 490.204C270.297 485.488 271.342 480.981 272.774 476.683C274.207 472.385 276.177 468.684 278.684 465.58C281.191 462.417 284.265 459.671 287.906 457.343C291.548 455.015 295.965 453.284 301.158 452.15C306.351 450.956 312.261 450.359 318.887 450.359C321.872 450.359 324.707 450.538 327.393 450.896C330.139 451.254 332.467 451.702 334.377 452.239C336.287 452.717 338.078 453.343 339.75 454.119C341.481 454.836 342.824 455.492 343.779 456.089C344.794 456.627 345.719 457.223 346.555 457.88C347.39 458.537 347.898 458.984 348.077 459.223C348.315 459.462 348.495 459.641 348.614 459.76L347.271 480.354H330.975L325.871 468.446C324.558 467.729 322.439 467.371 319.514 467.371C317.126 467.371 315.156 467.58 313.604 467.998C312.052 468.416 310.5 469.311 308.948 470.684C307.456 471.997 306.262 473.937 305.366 476.504C304.531 479.011 303.844 482.444 303.307 486.801C302.77 491.099 302.501 496.352 302.501 502.56C302.501 515.513 303.188 525.124 304.561 531.392C305.993 537.66 308.829 540.793 313.067 540.793C315.156 540.793 316.917 540.614 318.35 540.256C319.782 539.838 321.125 539.122 322.379 538.107C323.632 537.033 324.558 535.481 325.155 533.451C325.752 531.362 326.05 528.706 326.05 525.482V516.349L314.231 513.663V495.397H354.076L353.986 557H338.048L336.974 547.509ZM426.503 557H363.019V452.06H425.159L423.369 473.191L392.657 472.296V492.532H416.832V513.484L392.657 511.693V535.511L426.503 534.615V557ZM464.092 522.08V557H434.365V452.06H446.184C449.049 452.06 453.317 451.941 458.988 451.702C464.659 451.403 469.345 451.254 473.045 451.254C485.939 451.254 495.55 454.09 501.877 459.76C508.264 465.431 511.458 474.117 511.458 485.816C511.458 492.741 509.936 498.889 506.891 504.261C503.907 509.634 499.937 513.902 494.983 517.066C497.669 517.722 499.967 519.244 501.877 521.632C503.847 524.02 505.369 526.855 506.444 530.138C507.518 533.362 508.443 536.645 509.219 539.988C510.055 543.271 510.98 546.524 511.995 549.747C513.07 552.971 514.234 555.388 515.487 557H482.447C481.79 556.164 481.283 553.836 480.925 550.016C480.567 546.136 480.059 541.51 479.403 536.137C478.806 530.705 477.94 526.169 476.806 522.527C476.687 522.527 476.538 522.527 476.358 522.527C475.224 522.527 474.001 522.527 472.687 522.527C471.434 522.468 470.329 522.408 469.374 522.348C468.419 522.289 467.405 522.229 466.33 522.169C465.315 522.11 464.569 522.08 464.092 522.08ZM464.092 505.425H466.957C468.449 505.425 469.703 505.366 470.717 505.246C471.732 505.127 472.837 504.918 474.03 504.62C475.284 504.261 476.299 503.724 477.075 503.008C477.91 502.292 478.686 501.366 479.403 500.232C480.119 499.098 480.656 497.636 481.014 495.845C481.373 494.054 481.552 491.965 481.552 489.577V482.503C481.552 477.31 480.179 473.699 477.433 471.669C474.747 469.58 470.867 468.535 465.793 468.535H464.092V505.425Z" fill="white"/>
</svg>
