<svg width="868" height="398" viewBox="0 0 868 398" fill="none" xmlns="http://www.w3.org/2000/svg">
<path d="M56.0362 121.147C54.6774 163.801 67.0644 182.613 76.331 188.574C77.9758 189.633 79.6352 187.985 79.0648 186.114C60.3115 124.618 82.6572 87.6532 126.013 51.4837L181.913 4.37107C183.668 2.89254 186.347 4.43635 186.024 6.70786C178.407 60.3718 196.519 99.8433 206.958 113.264C240.037 145.434 242.967 191.879 239.902 215.489C239.634 217.551 241.813 219.06 243.501 217.846C258.361 207.161 265.919 187.952 268.979 174.405C269.527 171.982 273.116 171.521 274.11 173.796C322.307 284.14 275.28 347.586 244.958 365.78C192.395 407.751 123.358 398.631 95.4097 388.825C-51.3995 322.162 2.51445 185.445 51.6355 119.499C53.0722 117.57 56.1128 118.743 56.0362 121.147Z" fill="#D2BA90"/>
<path d="M125.336 324.979C117.755 332.56 108.742 336.351 98.2955 336.351C90.8936 336.351 84.4766 335.067 79.0446 332.5C73.6722 329.934 69.4042 326.233 66.2405 321.398C63.0768 316.562 60.7488 311.041 59.2564 304.833C57.8238 298.625 57.1075 291.551 57.1075 283.612C57.1075 277.702 57.406 272.39 58.0029 267.674C58.6595 262.958 59.7041 258.452 61.1368 254.154C62.5694 249.856 64.5392 246.155 67.0463 243.051C69.5534 239.887 72.6276 237.141 76.2689 234.813C79.9101 232.485 84.3274 230.754 89.5207 229.62C94.714 228.426 100.624 227.829 107.249 227.829C110.234 227.829 113.07 228.008 115.756 228.366C118.502 228.725 120.83 229.172 122.74 229.709C124.65 230.187 126.441 230.814 128.112 231.59C129.843 232.306 131.186 232.963 132.141 233.56C133.156 234.097 134.081 234.694 134.917 235.35C135.753 236.007 136.26 236.455 136.439 236.694C136.678 236.932 136.857 237.111 136.976 237.231L135.633 257.825H119.337L114.234 245.916C112.92 245.2 110.801 244.842 107.876 244.842C105.489 244.842 103.519 245.051 101.967 245.468C100.415 245.886 98.8626 246.782 97.3106 248.155C95.8183 249.468 94.6244 251.408 93.729 253.975C92.8933 256.482 92.2069 259.914 91.6696 264.272C91.1324 268.569 90.8638 273.822 90.8638 280.03C90.8638 292.984 91.5502 302.594 92.9232 308.862C94.3558 315.13 97.1912 318.264 101.429 318.264C103.519 318.264 105.28 318.085 106.712 317.727C108.145 317.309 109.488 316.592 110.741 315.578C111.995 314.503 112.92 312.951 113.517 310.922C114.114 308.832 114.413 306.176 114.413 302.953V293.82L102.593 291.133V272.867H142.438L142.349 334.47H126.411L125.336 324.979ZM181.736 293.909C181.736 303.818 182.482 310.713 183.974 314.593C185.526 318.473 188.212 320.413 192.033 320.413C194.838 320.413 196.957 319.726 198.39 318.353C199.823 316.921 200.897 314.026 201.613 309.668C202.389 305.251 202.777 298.655 202.777 289.88V268.301C202.777 259.765 201.942 253.408 200.27 249.229C198.599 245.051 195.853 242.961 192.033 242.961C188.212 242.961 185.526 245.021 183.974 249.139C182.482 253.199 181.736 260.63 181.736 271.435V293.909ZM190.152 336.351C185.198 336.351 180.721 335.903 176.721 335.008C172.782 334.112 169.379 332.859 166.514 331.247C163.649 329.635 161.142 327.576 158.993 325.069C156.903 322.562 155.202 319.875 153.889 317.01C152.635 314.145 151.621 310.802 150.845 306.982C150.069 303.102 149.531 299.252 149.233 295.431C148.934 291.551 148.785 287.194 148.785 282.359C148.785 275.195 149.143 268.957 149.86 263.645C150.636 258.332 152.038 253.348 154.068 248.692C156.098 243.976 158.784 240.156 162.127 237.231C165.529 234.306 169.887 232.008 175.199 230.336C180.572 228.665 186.899 227.829 194.182 227.829C199.196 227.829 203.703 228.307 207.702 229.262C211.701 230.157 215.134 231.411 217.999 233.022C220.864 234.634 223.341 236.723 225.431 239.29C227.58 241.857 229.281 244.603 230.534 247.528C231.848 250.393 232.892 253.766 233.668 257.646C234.444 261.526 234.982 265.376 235.28 269.196C235.579 273.017 235.728 277.344 235.728 282.179C235.728 289.343 235.34 295.58 234.564 300.893C233.788 306.206 232.385 311.19 230.355 315.846C228.326 320.443 225.61 324.203 222.207 327.128C218.805 329.993 214.417 332.262 209.045 333.933C203.732 335.545 197.435 336.351 190.152 336.351Z" fill="white"/>
<path d="M394.531 316.45C398.769 316.45 401.873 315.256 403.843 312.869C405.813 310.481 406.798 307.646 406.798 304.363V298.095C406.798 294.215 405.544 291.469 403.037 289.857C400.53 288.186 397.695 287.35 394.531 287.35H387.547V316.45H394.531ZM405.544 255.922C405.544 252.34 404.56 249.863 402.59 248.49C400.62 247.057 397.784 246.341 394.083 246.341H387.547V272.218H394.8C398.262 272.218 400.918 270.875 402.769 268.189C404.619 265.443 405.544 262.1 405.544 258.16V255.922ZM400.62 334.806C395.964 334.806 389.935 334.686 382.533 334.448C375.131 334.209 369.818 334.06 366.595 334H357.999V229.06H373.489C377.25 229.06 381.548 228.941 386.383 228.702C391.218 228.403 394.71 228.254 396.859 228.254C403.843 228.254 409.723 228.821 414.498 229.955C419.333 231.09 423.124 232.791 425.87 235.059C428.616 237.327 430.556 239.954 431.69 242.939C432.884 245.923 433.481 249.475 433.481 253.594C433.481 259.921 432.018 265.353 429.093 269.89C426.168 274.427 421.93 277.262 416.379 278.396C430.466 279.65 437.51 287.917 437.51 303.199C437.51 307.795 436.823 311.973 435.451 315.734C434.078 319.435 431.959 322.748 429.093 325.673C426.288 328.538 422.467 330.777 417.632 332.388C412.797 334 407.126 334.806 400.62 334.806ZM486.438 335.88C480.29 335.88 474.828 335.283 470.053 334.09C465.337 332.896 461.457 331.284 458.412 329.254C455.428 327.225 452.951 324.718 450.981 321.733C449.071 318.689 447.727 315.495 446.951 312.152C446.175 308.81 445.787 305.109 445.787 301.05V229.06H477.663V297.02C477.663 304.601 478.439 309.824 479.991 312.69C481.603 315.495 483.931 316.898 486.975 316.898C488.647 316.898 490.109 316.629 491.363 316.092C492.616 315.495 493.78 314.51 494.855 313.137C495.929 311.705 496.735 309.675 497.272 307.049C497.869 304.363 498.168 301.109 498.168 297.289V229.06H526.462V301.587C526.462 305.586 526.104 309.198 525.388 312.421C524.731 315.644 523.478 318.778 521.627 321.823C519.836 324.807 517.449 327.314 514.464 329.344C511.539 331.314 507.689 332.896 502.913 334.09C498.198 335.283 492.706 335.88 486.438 335.88ZM567.935 299.08V334H538.208V229.06H550.027C552.892 229.06 557.16 228.941 562.831 228.702C568.502 228.403 573.188 228.254 576.889 228.254C589.783 228.254 599.393 231.09 605.721 236.76C612.108 242.431 615.301 251.117 615.301 262.816C615.301 269.741 613.779 275.889 610.735 281.261C607.75 286.634 603.781 290.902 598.826 294.066C601.512 294.722 603.81 296.244 605.721 298.632C607.69 301.02 609.213 303.855 610.287 307.138C611.362 310.362 612.287 313.645 613.063 316.988C613.898 320.271 614.824 323.524 615.838 326.747C616.913 329.971 618.077 332.388 619.331 334H586.291C585.634 333.164 585.127 330.836 584.768 327.016C584.41 323.136 583.903 318.51 583.246 313.137C582.649 307.705 581.784 303.169 580.65 299.527C580.53 299.527 580.381 299.527 580.202 299.527C579.068 299.527 577.844 299.527 576.531 299.527C575.277 299.468 574.173 299.408 573.218 299.348C572.263 299.289 571.248 299.229 570.173 299.169C569.159 299.11 568.413 299.08 567.935 299.08ZM567.935 282.425H570.8C572.293 282.425 573.546 282.366 574.561 282.246C575.576 282.127 576.68 281.918 577.874 281.62C579.127 281.261 580.142 280.724 580.918 280.008C581.754 279.292 582.53 278.366 583.246 277.232C583.963 276.098 584.5 274.636 584.858 272.845C585.216 271.054 585.395 268.965 585.395 266.577V259.503C585.395 254.31 584.022 250.699 581.276 248.669C578.59 246.58 574.71 245.535 569.636 245.535H567.935V282.425ZM688.974 324.509C681.393 332.09 672.379 335.88 661.933 335.88C654.531 335.88 648.114 334.597 642.682 332.03C637.31 329.463 633.042 325.762 629.878 320.927C626.714 316.092 624.386 310.571 622.894 304.363C621.461 298.154 620.745 291.081 620.745 283.142C620.745 277.232 621.043 271.919 621.64 267.204C622.297 262.488 623.342 257.981 624.774 253.683C626.207 249.385 628.177 245.684 630.684 242.58C633.191 239.417 636.265 236.671 639.906 234.343C643.548 232.015 647.965 230.284 653.158 229.15C658.351 227.956 664.261 227.359 670.887 227.359C673.872 227.359 676.707 227.538 679.393 227.896C682.139 228.254 684.467 228.702 686.377 229.239C688.287 229.717 690.078 230.343 691.75 231.119C693.481 231.836 694.824 232.492 695.779 233.089C696.794 233.627 697.719 234.223 698.555 234.88C699.39 235.537 699.898 235.984 700.077 236.223C700.315 236.462 700.495 236.641 700.614 236.76L699.271 257.354H682.975L677.871 245.446C676.558 244.729 674.439 244.371 671.514 244.371C669.126 244.371 667.156 244.58 665.604 244.998C664.052 245.416 662.5 246.311 660.948 247.684C659.456 248.997 658.262 250.937 657.366 253.504C656.531 256.011 655.844 259.444 655.307 263.801C654.77 268.099 654.501 273.352 654.501 279.56C654.501 292.513 655.188 302.124 656.561 308.392C657.993 314.66 660.829 317.793 665.067 317.793C667.156 317.793 668.917 317.614 670.35 317.256C671.782 316.838 673.125 316.122 674.379 315.107C675.632 314.033 676.558 312.481 677.155 310.451C677.752 308.362 678.05 305.706 678.05 302.482V293.349L666.231 290.663V272.397H706.076L705.986 334H690.048L688.974 324.509ZM778.503 334H715.019V229.06H777.159L775.369 250.191L744.657 249.296V269.532H768.832V290.484L744.657 288.693V312.511L778.503 311.615V334ZM816.092 299.08V334H786.365V229.06H798.184C801.049 229.06 805.317 228.941 810.988 228.702C816.659 228.403 821.345 228.254 825.045 228.254C837.939 228.254 847.55 231.09 853.877 236.76C860.264 242.431 863.458 251.117 863.458 262.816C863.458 269.741 861.936 275.889 858.891 281.261C855.907 286.634 851.937 290.902 846.983 294.066C849.669 294.722 851.967 296.244 853.877 298.632C855.847 301.02 857.369 303.855 858.444 307.138C859.518 310.362 860.443 313.645 861.219 316.988C862.055 320.271 862.98 323.524 863.995 326.747C865.07 329.971 866.234 332.388 867.487 334H834.447C833.79 333.164 833.283 330.836 832.925 327.016C832.567 323.136 832.059 318.51 831.403 313.137C830.806 307.705 829.94 303.169 828.806 299.527C828.687 299.527 828.538 299.527 828.358 299.527C827.224 299.527 826.001 299.527 824.687 299.527C823.434 299.468 822.329 299.408 821.374 299.348C820.419 299.289 819.405 299.229 818.33 299.169C817.315 299.11 816.569 299.08 816.092 299.08ZM816.092 282.425H818.957C820.449 282.425 821.703 282.366 822.717 282.246C823.732 282.127 824.837 281.918 826.03 281.62C827.284 281.261 828.299 280.724 829.075 280.008C829.91 279.292 830.686 278.366 831.403 277.232C832.119 276.098 832.656 274.636 833.014 272.845C833.373 271.054 833.552 268.965 833.552 266.577V259.503C833.552 254.31 832.179 250.699 829.433 248.669C826.747 246.58 822.867 245.535 817.793 245.535H816.092V282.425Z" fill="white"/>
</svg>
